<?xml version="1.0" standalone="no"?>
<!DOCTYPE svg PUBLIC "-//W3C//DTD SVG 20010904//EN"
 "http://www.w3.org/TR/2001/REC-SVG-20010904/DTD/svg10.dtd">
<svg version="1.0" xmlns="http://www.w3.org/2000/svg"
 width="512.000000pt" height="512.000000pt" viewBox="0 0 512.000000 512.000000"
 preserveAspectRatio="xMidYMid meet">

<g transform="translate(0.000000,512.000000) scale(0.100000,-0.100000)"
fill="#000000" stroke="none">
<path d="M2415 4204 c-699 -56 -1461 -487 -2109 -1193 -276 -300 -301 -338
-301 -451 0 -113 25 -151 301 -451 602 -655 1290 -1068 1959 -1175 150 -24
440 -24 590 0 669 107 1357 520 1959 1175 276 300 301 338 301 451 0 113 -25
151 -301 451 -593 645 -1283 1064 -1929 1169 -116 19 -369 32 -470 24z m347
-469 c238 -42 449 -149 624 -317 414 -398 485 -1039 167 -1517 -421 -633
-1325 -715 -1851 -167 -218 227 -332 511 -332 826 0 581 410 1069 985 1175 98
18 303 18 407 0z"/>
<path d="M2385 3364 c-316 -69 -567 -325 -631 -643 -20 -101 -15 -281 11 -376
24 -88 98 -231 158 -305 102 -125 270 -234 427 -277 91 -25 329 -25 420 0 93
26 234 99 310 160 125 102 234 270 277 427 25 91 25 329 0 420 -43 157 -152
325 -277 427 -74 60 -217 134 -305 158 -87 24 -301 29 -390 9z m113 -421 l-3
-137 -30 -6 c-76 -16 -137 -76 -151 -148 l-6 -32 -134 0 c-154 0 -147 -6 -119
103 23 87 61 155 124 218 76 76 166 119 276 132 17 2 34 5 38 6 4 0 6 -61 5
-136z"/>
</g>
</svg>
